<svg xmlns="http://www.w3.org/2000/svg" width="480" height="580" viewBox="0 0 480 580">
  <rect width="480" height="580" fill="#e7dfd5"/>
  <circle cx="240" cy="235" r="168" fill="#efe8dd"/>
  <path d="M52 580V492c0-109 84-164 188-164s188 55 188 164v88" fill="#b7a494"/>
  <path d="M204 313h72v71c-17 25-55 25-72 0z" fill="#c5b2a2"/>
  <ellipse cx="240" cy="238" rx="87" ry="107" fill="#c5b2a2"/>
  <path d="M154 255c-28-118 18-169 84-169 76 0 112 57 89 169-8-53-24-102-54-119-28 53-67 69-119 66z" fill="#75615b"/>
  <path d="M118 580l52-177 70 54 70-54 52 177" fill="#8e7772"/>
  <rect x="130" y="494" width="220" height="37" rx="18" fill="#fffaf0"/>
  <text x="240" y="518" text-anchor="middle" font-family="Arial,sans-serif" font-size="12" letter-spacing="2" fill="#68544d">YOUR PHOTO HERE</text>
</svg>
